<svg xmlns="http://www.w3.org/2000/svg" data-name="Layer 1" viewBox="0 0 100 85" x="0px" y="0px" fill="#c20000">
  <path d="M33.52,82.66a2.56,2.56,0,0,0,2.56-2.58V74.27h5.82a2.56,2.56,0,0,0,2.57-2.58l0-5.86,5.84,0h0a2.44,2.44,0,0,0,1.73-.73l2.71-2.76A23.3,23.3,0,0,0,72.1,59.4,23,23,0,0,0,82.68,43.87a22.76,22.76,0,0,0-4.48-18,22.24,22.24,0,0,0-16.1-8.53h0c-1.14,0-2,.48-2,1.14s.79,1.24,1.78,1.32l.27,0A19.69,19.69,0,0,1,75.65,28a19.25,19.25,0,0,1,3,15.19,19,19,0,0,1-9,12.29,18.76,18.76,0,0,1-15,1.69,2.4,2.4,0,0,0-2.42.58l0,0-3,2.94-7.38,0h0a2.54,2.54,0,0,0-2.55,2.53v0l0,5.81H33.49a2.59,2.59,0,0,0-2.59,2.6V77.5l-8.9,0L22,69.87,42.2,49.1l.06-.06a2,2,0,0,0,.39-2.21,19.26,19.26,0,0,1,.91-17.29,19.69,19.69,0,0,1,14.75-9.77c1-.07,1.78-.64,1.79-1.29s-.87-1.15-2-1.11h-.32a22.42,22.42,0,0,0-17.2,10.56,22.74,22.74,0,0,0-2.21,19.11L17.76,67.14a2.4,2.4,0,0,0-.71,1.69v0L17,80.08h0a2.53,2.53,0,0,0,2.51,2.53h0l14,0Z" />
</svg>